<svg width="18" height="15" viewBox="0 0 18 15" xmlns="http://www.w3.org/2000/svg">
<path d="M17.4023 6.92051C15.5508 2.43506 12.7519 0.177734 8.99999 0.177734C5.24609 0.177734 2.44921 2.43506 0.597647 6.92275C0.52338 7.1036 0.484863 7.30112 0.484863 7.50112C0.484863 7.70112 0.52338 7.89864 0.597647 8.07949C2.44921 12.5649 5.24804 14.8223 8.99999 14.8223C12.7539 14.8223 15.5508 12.5649 17.4023 8.07725C17.5527 7.71338 17.5527 7.29111 17.4023 6.92051ZM8.99999 13.2051C5.8496 13.2051 3.54296 11.3678 1.91601 7.5C3.54296 3.63223 5.8496 1.79492 8.99999 1.79492C12.1504 1.79492 14.457 3.63223 16.084 7.5C14.459 11.3678 12.1523 13.2051 8.99999 13.2051ZM8.92187 3.54688C7.02343 3.54688 5.48437 5.3168 5.48437 7.5C5.48437 9.6832 7.02343 11.4531 8.92187 11.4531C10.8203 11.4531 12.3594 9.6832 12.3594 7.5C12.3594 5.3168 10.8203 3.54688 8.92187 3.54688ZM8.92187 10.0156C7.71288 10.0156 6.73437 8.89033 6.73437 7.5C6.73437 6.10967 7.71288 4.98438 8.92187 4.98438C10.1309 4.98438 11.1094 6.10967 11.1094 7.5C11.1094 8.89033 10.1309 10.0156 8.92187 10.0156Z" />
</svg>
